<svg xmlns="http://www.w3.org/2000/svg" width="256" height="166.269"><path fill-rule="evenodd" clip-rule="evenodd" fill="#404041" d="M208.122 119.759v.504c-.035.113-1.211 1.324-1.574 1.574-.141.098-.324.016-.383.191-.09.055-.09.203-.121.316-.863.527-1.418 1.359-2.211 1.953-.043.605-.402.898-.566 1.387-.781.395-1.035 1.32-1.891 1.641-.559 1.309-2.25 1.488-2.336 3.277-.562.484-1.098 1-1.699 1.449h-.754c-.328.262-1.023.094-1.074-.316-.438-.109-.762-.328-1.07-.57-1.254-.316-2.137-1.012-3.09-1.637-.016-.215-.137-.328-.375-.316-.156-.645-.703-.891-.887-1.512.586-1.18 2.328-1.203 3.531-1.762 2.137-.344 3.574-1.391 5.297-2.145 1.059.219 1.031-.648 1.766-.758.883-.754 2.016-1.258 3.527-1.387.242-.133.352-.41.758-.379.441-.609 1.484-.617 1.828-1.32.402-.085.816-.409 1.324-.19z"/><path fill-rule="evenodd" clip-rule="evenodd" fill="#404041" d="M219.461 45.446c1.316.031 2.27-.299 3.344-.506 3.719-.133 6.586-2.02 10.465-1.449.355.545.602 1.203.754 1.955-.012.412-.023.82.125 1.07-.539 1.287-1.922 1.73-3.277 2.207-.539-.344-.914.082-1.324.188-.266.07-.645-.014-1.008.064-.371.08-.871.293-1.512.189-.699 1.062 1.375 1.289 2.266 1.576.152.336.5.471.824.629.02.379.211.584.375.82.137.676-.121 1.102-.312 1.451-.152.279-.16.727-.254.881-.301.51-.793.541-1.262.883-.441.322-.742.906-1.008 1.449-.406.35-.883.633-1.262 1.01-.777-.131-.949.35-1.258.691-.535.098-1.184.08-1.324.568 2.949-.012 6.223-.414 8.949-.504 1.859.111 3.914-.09 5.863.188l1.199.316c1.116.164 2.214-.1 2.96.379.141.592.688.779.883 1.322.016 1.045.402 2.111 0 3.025-.453.35-.699.898-1.008 1.389-.645.252-1.234.209-1.828.062-.4-.102-.87-.006-1.261-.062l-.82-.316c-1.129-.223-2.395-.074-3.402-.504-1.723.012-3.16-.168-4.41-.316-.219-.006-.457-.031-.504.127-.543-.4-1.16.115-1.703.189-1.094.148-2.477-.227-3.152.314-1.488.09-2.875.279-4.223.506-1 .01-1.797.221-2.648.377-.754.002-1.508.008-1.957.314-1.07.066-2.117.152-3.023.379-1.906-.078-2.824.832-4.539.945-.473.439-1.133.35-1.953.506l-.883.314c-.512.092-1.043-.021-1.578.062-.684.107-1.449.605-2.266.818l-.629.064c-.352.086-1.285.301-1.645.504l-.941.82c-.426-.023-.691.107-.949.252-.344.033-.59-.037-.879-.064-.355-.42-1.297-.258-1.516-.818-1.246-.287-2.117-.949-3.34-1.26-.219-.35-.562-.57-.691-1.01.082-.457.211-.902 0-1.322 1.266-.332 2.195-.998 3.906-.883.969-.328 1.961-.336 2.961-.506.344-.057.68-.254 1.012-.314.277-.051.562.002.82-.062l1.004-.441c.754-.193 1.527-.281 2.273-.441.398-.084.859-.354 1.387-.441.734-.127 1.523-.254 2.207-.441.242-.068.312-.252.504-.379-.621-1.881-.688-4.314-1.516-5.988.297-.377.309-1.037.379-1.639.465.105.82.316 1.328.379.414.504.938.904 1.57 1.197.359.732 1.301.883 1.766 1.514 1.105.383 1.578 1.406 2.27 2.205.02.381-.051.85.062 1.135 2.023-.434 4.215-.699 6.18-1.197 1.375-1.988 2.91-3.814 3.465-6.619.457-.299.457-1.057.82-1.449.047-.889-.484-1.193-.82-1.701-1.535.049-3.164.645-4.473.504-.176.162-.574.102-.695.314-.648-.057-1.164.014-1.387.379-1.184-.066-2.137.09-2.836.504-1.883-.031-2.816.879-4.664.883-.824.436-2.145.379-3.09.691-.484-.045-.848.035-1.004.318h-.574l-.25-.254-1.574-.631-.066-.252s-.195.031-.25 0l-.062-.188c-.227-.125-.48-.203-.758-.381l-.754-.377-.191-.314-1.574-.756c-.098-.492-.609-.57-.441-1.324.547.023.785-.266 1.137-.441 4.699-.572 9.543-1.002 13.93-1.891.09-.119.207-.213.312-.316.031-1.299-.055-2.537-.25-3.592-.117-.6-.102-1.178-.191-1.766-.082-.535-.527-1.062-.504-1.639-.434-.611-1.035-1.068-1.012-2.145.539-.748 1.871-.496 2.965-.566 1.02 1.275 3.914.67 3.848 3.025.043.207.223.281.312.441.055.727-.266 1.078-.504 1.514.023 1.238.344 2.18.379 3.402.06.089.166.128.185.257z"/><path fill-rule="evenodd" clip-rule="evenodd" fill="#404041" d="M229.676 95.872c-.676.02-1.492-.266-1.578.441-.633.059-.855.531-1.637.441-.426-.352-.484-1.07-1.07-1.258.02-.609-.129-1.312-.129-2.207.02-.168-.246-.055-.188-.254-1.105-.141-2.922.121-3.91-.188-2.41.32-5.02.441-7.125 1.07-.312.316-.625.633-1.008.883-.898-.398-1.977.395-2.645.316l-.695-.379c-.535-.031-.684.387-1.008.758-1.027.203-1.07-.57-1.891-.57-.758-.723-.766-1.852-.883-3.086-.109-1.164-.43-2.473-.316-3.723.066-.699.297-1.328 0-1.955.145-2.159-.238-4.827-.379-7.12.016-1.273-.082-2.438-.504-3.279.031-.428-.031-.768-.062-1.135-.41-1.062-1.875-1.896-1.133-3.34.453.043.902-.26 1.32-.254.176.004.258.139.445.191.281.076.605.006.82.062.477.127.938.51 1.449.631.797.188 1.629.066 2.266.504.43-.299.875-.297 1.516-.504l.441-.316.945-.189c.844-.299 1.688-.793 2.52-1.008l.691-.062.82-.316c.566-.121 1.184.035 1.578-.314 1.887-.17 3.801-.496 5.609-.758.449-.062 1.008-.084 1.387-.188.492-.137.645-.773 1.137-.883.008-1.076 1.238-.947 2.012-.631.402.355.883.338 1.328.506 1.273.475 2.02 1.717 3.152 2.33.102.105.047.371.062.568.555.473.371 1.688.629 2.459-.137.322-.352.572-.504.881-.188 1.688-.035 4.25-.379 5.926-.34 1.678-.184 3.033-.379 4.856l-.25 1.133c-.105 1.107.051 2.189-.066 3.213-.203 1.855-.469 3.742-1.004 5.422-.634.271-.849.963-1.384 1.326zm-3.215-13.678l.379-1.387-.066-2.332.379-1.197c.086-.621.16-1.41.062-1.953l-.375-.822c-.137-.637.004-1.23-.066-1.828-.195-.203-.422-.375-.691-.502-.121.279-.746.053-1.074.125-1.121.262-2.297.475-3.59.568-2.469.852-5.586 1.055-8.258 1.701-.438.49-1.094.756-1.828.945-.641.533-1.082 1.883-.695 3.027-.242.234.059.42.066.754.562.02 1.141-.438 1.57 0 3.207-.852 6.543-1.57 10.277-1.891.938.295 2.199.023 2.902.631.043.42.379.541.504.883-.309.32-.16.842 0 1.197-.117.158-.262.285-.504.314-.023.232.051.559-.062.695-1.742.143-3.352-.078-5.234.188-1.93.742-4.73.609-6.176 1.828-.203-.014-.27.111-.508.064-.215.373-.656.518-.941.818-.664.118-.793-.303-1.391-.252-.73 1.555.727 3.403.254 5.106.152.289.27.613.504.82 1.766-.129 2.863-.922 4.789-.883 2.684-.551 6.059-.414 8.512-1.199.359-.016.805.047 1.07-.062.316-1.67-.043-3.571.191-5.356z"/><path fill-rule="evenodd" clip-rule="evenodd" fill="#404041" d="M217.387 103.368c-2.477-.043-3.078 1.801-4.602 2.711-.176.727.273.82.629 1.008.68-.305 1.652-.32 2.141-.816 2.074-.48 4.562-.805 6.812-1.324.324-.367.746-.637.945-1.137.234-.117.758.047.883-.188.137-.035.09.121.188.129.379-.328.84.039 1.324 0 .629.645 1.402 1.156 2.27 1.57.262.289.414.68.883.758.164.406.586.551.883.82-.02.977.992 1.223.695 2.27-.176.078-.438.07-.695.062-.047.426.062.691.062 1.074-.078.395-.715.551-.887 1.008-.195.539-.078 1.312.066 1.891.336-.02.203-.512.566-.508 1.137-2.051 2.738-3.648 4.477-5.102-.094-.371.238-.309.188-.629.461-.359.812-.828 1.328-1.137v-.254c.617-.348.781-1.148 1.387-1.512.199-.641-.27-.938-.129-1.703-.031-.219-.297-.207-.316-.438l.191-.316c.242-.035.305.113.566.059.105-.105.262-.156.254-.375.871.07 1.691.195 2.141.691l.63.066c.418.402 1.033.605 1.576.879.555.918 1.336 1.609 1.766 2.648.215 1.344-.352 2.188-1.07 2.773-.73.012-1.07.402-1.893.316-.359-.758-1.556-.199-1.763.316-1.297.387-1.676 1.688-3.219 1.828-.34.293-1.141.691-1.762.816-.109.023-.277-.043-.379 0-.332.141-.383.492-.633.695l-.562.254c-.297.215-.512.613-.82.816-.199.133-.406.117-.57.254-.426.352-.73.801-1.195 1.004h-.758c-.504.273-.227.906-.312 1.453l-.254.566c-.137.566-.043 1.023-.441 1.262-.008.301.02.566.188.691-.188.863-.152 1.949-.629 2.523.188.223.188.98 0 1.199-.02.207-.008.387.125.441-.473 1.195-.051 2.664-.566 3.652l-.25.191c-.242.77-.074 1.734-.191 2.582-.285.266-.195.898-.441 1.199-.379.02-.664-.047-.816-.25-.324.305-.75.516-1.199.691-.336.25-.48.699-.949.82-.348-.387-.691-.781-1.32-.883.078-.332-.25-.289-.379-.504-.227-.387-.137-1.016-.375-1.324-.395-.504-1.156-.223-1.77-.566-.371.301-1.402-.062-1.699.316.23.672 1.145.66 1.387 1.324.984.773 1.871 1.652 2.457 2.832.203-.066.43-.113.566-.25 2.062-.055 4.305-.098 6.305-.379 1.742-.016 3.762.352 5.418 0 .469.184 1.621.215 2.082 0 .273-.062.348.07.504.129.809-.266 2.156.012 2.711-.508 2.3.477 5.026.523 6.933 1.391.223.617.691.984 1.262 1.262.449 1.277.582 2.527.188 3.969-.375.215-.574.598-1.008.754-.008.375-.168.59-.25.883-.863.148-.93-.5-1.766-.379-.453-.391-1.312-.367-2.082-.691-.391-.164-.613-.449-.941-.504-.586-.102-1.244.176-1.769-.191-5.195-.391-10.922-.09-15.633-.125-.195-.047-.074.219-.316.125 0 .168-.023.363.066.445 1.254.488 2.262 1.223 3.34 1.887.168-.02.164.133.191.254 2.23.648 3.52 2.234 5.734 2.902.625.652 1.902.656 2.523 1.32 1.359.398 2.418 1.113 3.969 1.324l.191.254c.935.215 2.026.281 2.706.754.688-.098.914.266 1.262.504.266.078.277-.102.441-.125 1.367.652 3.43.609 4.539 1.512h.883c.305.977 2.023.543 2.457 1.387.379 0 .773-.02 1.07.066.156.387.52.543.316 1.133.059.133.355.02.379.188.055.246-.105.273-.191.379-.211.008-.184-.234-.188-.438-.258-.02-.402-.145-.633-.191-.285.52.383.629.633.82.008.32.035.66-.125.816.055.219.254.289.379.441.195-.215-.07-.176 0-.566.203-.004.133-.285.441-.188.027-.488-.02-1.23.188-1.703.277.016.32.27.504.379.027.238-.395.023-.25.375.062.23.426.164.504.379-.055.496-.488.605-.695.949.066.082.172.121.191.25.473-.445 1.656.062 1.383.504.047.199-.344-.121-.629 0-.516.207-1.523.535-2.078.125-.188.07-.23.277-.379.379-.746-.508-2.387.254-2.902-.504-.605.559-1.5-.434-2.078.125-.461-.18-.887-.031-1.387-.125l-.379-.254c-1.098-.277-2.078.68-2.457-.25-.754-.098-1.527.418-1.895-.191-.207-.02-.383-.008-.441.129-1.217-.082-2.214-.391-3.085-.82-1.023.098-1.441-.406-2.332-.441-.754-.734-2.285-.699-2.961-1.512-.246.031-.309-.113-.57-.062-.152-.289-.41-.473-.816-.504-.047-.27-.309-.324-.57-.379-.668-.613-1.207-1.352-2.082-1.766-.73-1.16-2.027-1.75-2.961-2.711-.496-.004-.555-.453-1.07-.441-.941-1.055-2.199-1.793-3.277-2.711l-.254.129c.094.59.297 1.457 0 1.887.488 1.125-.453 2.277-.062 3.281.121 1.941-.105 3.875.191 5.672-.191.336-.223.836 0 1.199.086.254-.141.199-.129.379-.07.195.102.152.129.25.008 1.023.16 1.867 0 2.648-.203.988-1.074 1.301-1.387 2.078l-.57.191c-.082.168-.312.191-.312.441-.105.082-.402-.023-.379.188-.391-.137-.875-.48-1.324-.188-.043-.25-.254-.336-.25-.633-.168-.062-.387-.074-.633-.059.043-.273-.262-.199-.254-.445-.73-.062-.598-1-1.004-1.387.289-1.855.004-3.586.125-5.293-.5-.316-.203-.789-.125-1.324.297-2.082-.297-5.082-.129-7.312-.684.074-.891.621-1.258 1.008-.836.277-1.207 1.027-2.02 1.324-.336.609-1.145.746-1.324 1.512-.262.094-.559.156-.566.504-1.254.43-1.848 1.516-3.027 2.02-.312.523-1.102.578-1.383 1.137-.195-.047-.23.062-.379.062-.867.789-2.051 1.27-3.027 1.949-.422.02-.73.152-.883.441-.488.078-.938.199-1.258.445-1.457-.113-1.945.75-3.531.5-.23.238-.863.066-1.074.316-1.617-.301-2.973.816-4.16.125.027-.164.199-.18.316-.25-1.578-.082-3.312.371-4.914-.062l-.129-.379c.672-.379 1.426-.68 2.336-.82.59-.289 1.145-.617 1.891-.754 1.48-.723 2.715-1.699 4.223-2.395.305-.008.66.035.879-.066.074-.18.273-.227.316-.441.855-.195 1.281-.816 1.578-1.574 1.848-.691 3.316-1.766 4.789-2.836.148-.039.289-.09.504-.066.141-.215.352-.363.445-.629 1.582-.156 1.84-1.645 2.895-2.332.219-.281.516-.492.695-.82.219.051.242-.09.441-.059.234-.207.449-.438.566-.758-.422-.215-1.359.094-1.828.25-2.297-.191-4.375.914-6.871.945-.59.484-1.398.746-2.016 1.199-.508-.098-1.637.258-1.641-.504-1.566-.578-3.152-1.133-4.031-2.395-.59-.254-.676-1.012-1.328-1.199.035-.223-.102-.277-.188-.379.57-.605 1.301-1.051 2.145-1.387.812-.113 1.809-.043 2.52-.25 3.41-.117 5.855-1.203 9.078-1.516l.375-.254c2.691-.25 5.168-.711 7.379-1.445l.25.125c.973-.559 2.84-.07 3.469-1.07-.203-.723-.102-1.754-.254-2.523-.168-.609-.598-1.219-1.512-.883-.316.758-1.496 1.184-2.398.633-.109-.352-.312-.613-.691-.695-.301-.73-.414-1.641-.379-2.711-.594-1.172-.18-2.543-.375-3.973-.129-.902-.586-1.957-.695-2.898-.047-.406.148-.961-.125-1.195-.059-1.527.125-3.07-.191-4.223-.062-.504.148-1.281-.125-1.578-.027-2.348-.336-4.41-1.324-5.797.016-.91.25-1.602.254-2.523.523.016.883-.367 1.387-.312.168.012.246.199.375.25.504.191 1.211.152 1.516.566.309.078.246-.215.504-.191.234-.691.402-1.445.883-1.887.141-.934.789-1.355.945-2.27.234.066.098-.238.316-.191.047-.668.598-1.27.691-2.016.082-.645-.133-1.316.25-1.828.484-.297.871.23 1.266.316h.5c.363.105.809.375 1.199.566.293.141.598.387.883.566.301.191.598.57.883.758.176.113.309.039.441.25v1.516c-.713.832-1.482 1.597-2.338 2.273zm3.785 5.801c-.508.09-1.039-.016-1.516.062l-3.027.82c-.633.102-1.227.238-1.891.254-.285.176-.707.211-.945.438.035 1.773.113 3.504.504 4.918.375-.062.645-.316 1.008-.438.566-.191 1.281-.227 1.828-.441l.629-.445c.523-.191.992-.113 1.578-.25.301-.07.965-.059 1.387-.191.176-.051.27-.219.445-.25.473-.086 1.098-.016 1.574.125.16-.07.285-.172.5-.191.121-1.707.211-3.094 0-4.914-.742-.071-1.445.394-2.074.503zm1.258 8.699c-1.488-.547-3.469-.34-5.23-.188-.754.277-1.348.711-2.207.879-.09.211-.238.355-.445.445.117 2.109 1.117 3.941.695 6.176.117-.008.148.062.129.188 2.074-.316 3.441-1.348 5.922-1.258-.008-.117.062-.148.191-.129.191-.352.145-.719.25-1.195.07-.305.344-.555.441-.883.203-.691-.078-1.504.066-2.27.086-.484.625-1.082.312-1.637-.077-.011-.147-.022-.124-.128z"/><path fill-rule="evenodd" clip-rule="evenodd" fill="#404041" d="M194.883 111.376c-.09-.281.188-.195.125-.441.426.004.809-.035.82-.441.688-.195 1.359-.406 2.082-.57 1.238.426 2.516.805 3.719 1.262.203.449.578.727 1.07.883.363.562.73 1.121 1.387 1.387.422.883.57 2.055.188 3.09-.633.5-1.285.984-2.141 1.262-.871.07-1.227-.371-1.828-.566-.168-.527-.789-.602-.945-1.137-1.586-1-2.602-2.566-3.969-3.781-.051-.436-.223-.749-.508-.948z"/><path fill-rule="evenodd" clip-rule="evenodd" fill="#404041" d="M245.375 122.532c.105.59.086 1.488 0 2.078-.859.68-.883 2.184-2.395 2.207-.211.215-.535.312-.758.508-1.223-.168-1.619-1.156-2.585-1.578-.496-.703-.699-1.695-1.574-2.016-.129-.504-.656-.605-.758-1.137-.707-.34-.98-1.117-1.699-1.449.035-.207-.043-.293-.062-.441-.738-.801-1.168-1.902-2.211-2.395.016-.242-.293-.168-.25-.441-.562-.027-.734-.441-1.324-.441-.148-.461-.664-.555-1.074-.758.008-.098-.027-.238.062-.25 2.508.039 5.109-.297 7.188.188 1.211.285 2.008 1 3.026 1.262.211.312.465.59.883.691l.066.254c.688.172.785.934 1.508 1.07.18.426.637.508.883.949.343.605.234 1.543 1.074 1.699z"/><g fill="#EF5451"><path d="M165.161 135.685c.008-.551.074-1.086.02-1.762-.113-1.297-.438-1.875-.215-3.156.242-1.41.535-2.727.32-4.191-.129-.867-.883-1.664-.973-2.551-.172-1.707.516-4.168.488-5.465-.016-.605-.348-1.117-.363-1.699-.02-.527.242-1.152.238-1.703 0-.723-.305-1.344-.238-1.82.102-.785.887-1.406.848-2.188-.035-.688-.723-1.242-.848-1.941-.168-.918.137-1.953-.125-2.793-.203-.668-.848-1.094-.973-1.703-.195-.98-.113-2.551.125-3.395.168-.605.828-.996.973-1.703.363-1.832-.035-3.449-.73-5.219.398-2.703.953-5.801.73-9.23-.152-2.27-.027-4.913-.125-7.167-.074-1.795-.785-3.35-.973-4.613-.121-.855.117-1.688-.117-2.43-.207-.639-.941-1.105-1.094-1.82-.715-3.363 1.547-5.496 1.457-8.623l-.363-2.064c-.078-2.484.375-5.068.363-7.65-.004-.92-.324-1.832-.363-2.793-.242-5.496.543-11.41 0-16.637-.289-2.75.414-5.877-.367-8.621.273-1.719.793-6.008.484-8.379-.121-.955-.938-1.432-1.09-2.188-.316-1.521.363-3.035-.242-4.129-.363-.646-1.492-.787-1.824-1.457-.273-.564-.047-1.27-.242-1.82-.117-.336-.562-.666-.852-1.092-.344-.521-.414-1.07-.727-1.338-1.504-1.285-5.828-1.5-7.406-.363-1.059-.682-1.57-1.688-2.914-1.943-1.242-.234-2.023.701-3.16.729-.602.014-1.25-.547-1.82-.486-7.543.816-15.732 1.812-23.758 2.029-5.965.16-13.199-1.445-19.098-.836-5.478.565-11.935 1.551-17.224 1.604-13.211.136-26.045.246-39.369-.432-10.612-.537-21.735.777-32.069.67-.908-.01-1.74-.553-2.428-.486-.754.076-1.308.841-2.306 1.214-.543.202-1.299.163-1.702.364-.841.427-2.13 2.103-2.55 3.402-.188.582-.043 1.408-.243 2.064-.221.723-.863 1.273-.971 1.82-.273 1.373.268 2.506 0 3.764-.143.672-.869 1.178-1.094 1.943-.484 1.658-.121 4.404-.121 6.801 0 2.133-.025 4.592.242 5.949.098.494.496.881.607 1.336.256 1.035.475 2.326.365 3.279-.072.617-.561 1.182-.607 1.822-.123 1.695.67 2.934.729 4.492.059 1.635-.891 2.355-1.094 3.521-.352 2.023.77 3.082.973 4.252.398 2.322-.184 4.705-.248 7.033-.059 2.158 1.072 3.951 1.066 5.939-.002.865-.756 2.033-.914 2.949-.389 2.244.193 4.527.055 6.752-.049.781-.701 2.268-.674 2.814.057 1.139.488 1.027.857 2.002 1.168 3.082 1.104 6.775.828 10.03-.102 1.215.051 2.359 0 3.402-.037.758-.506 1.438-.486 2.188l.486 2.062c.02.57-.24 1.332-.242 1.945-.004.949.344 1.789.242 2.426-.115.734-.871 1.363-.85 2.066.018.641.627 1.215.85 1.941.525 1.703-.07 3.137 0 4.738.064 1.461.975 2.746.85 4.25-.174 2.113-.92 3.879-.729 6.191.84 2.086 1.451 4.629.729 7.164-.184.652-.637 1.211-.729 1.945-.096.766.219 1.66.244 2.551.014.547.686 2.98.729 3.762.061 1.109-.709 2.012-.852 3.277-.33 2.992-.564 6.18.607 8.504-.625 1.281-.805 5.105-.85 5.828-.041.707.389 1.629.486 2.551.049.473-.086.934 0 1.336.109.516.525.926.607 1.457.289 1.883.275 3.035 1.092 4.125.439.594 1.34.707 1.822 1.34.428.559.387 1.465.85 1.941.537.551 1.592.418 2.672.727l1.336.73c.535.219 1.174.281 1.699.484.543.215.959.734 1.457.852 1.75.406 3.805-.453 5.223-.73.621-.117 2.305.668 3.07.738 1.1.102 2.211.066 3.312.074 2.713.016 5.441.109 8.141-.234 3.172-.41 6.262.484 9.475-.016 2.863-.445 5.482-.246 8.32-.129 1.307.051 2.363-.676 3.623-.695 1.203-.023 2.283.336 3.498.336.805-.004 1.604.367 2.361.359.695-.004 1.221-.469 1.826-.484.709-.016 1.303.488 2.047.477.73-.016 1.438-.594 2.156-.547.252.016 1.383.473 1.352.488.873-.445 1.164-.742 2.064-.852.662-.078 1.371.297 2.184.121 1.094-.234 1.828-1.973 3.039-2.062 1.543-.117 2.932 1.238 4.312 1.734 1.707.617 2.934-.402 4.582-.73 2.146-.422 4.363-.07 6.529-.242 1.52-.121 2.902.348 4.4.207 2.654-.25 4.918-.102 7.553.09 1.553.113 2.951-.527 4.439-.453.725.039 1.486.699 2.307.73.844.031 1.875-.273 2.791-.367.926-.09 2.018-.539 2.672-.484.727.059 1.424 1.223 2.188 1.094.521-.086.879-1.133 1.334-1.336.916-.41 2.057.012 3.402-.121.939-.094 1.627-.734 2.307-.73.92.008 1.719.992 2.672 1.094.795.086 2.004-.445 3.158-.363.402.027.826.262 1.213.242l2.064-.484c.812-.039 1.504.34 2.309.363 3.105.09 6.309-.984 9.352-.242.52.125.93.559 1.457.605 1.805.168 3.891-.461 5.68-.781 1.445-.254 4.816.43 6.25.098 1.301-.297 2.246-1.363 3.621-1.5.793-1.055.336-2.328.73-3.402.293-.805 1.227-1.195 1.578-2.188.363-1.035-.137-3.035-.117-4.375.008-.793-.086-1.52-.039-2.402.109-1.988.391-3.695.398-5.676.004-2.395.832-3.863.164-6.258-.148-.544-.179-.997-.171-1.438zm-17.239-19.676c-1.117 4.23-.562 10.191-.609 15.785-.02 2.422.434 5.477 0 6.922-.754 2.531-2.578 3.785-4.613 5.102-1.371-.188-2.707.824-4.129.973-.656.066-1.324-.242-2.062-.242-1.188-.008-2.305.031-3.523 0-1.064-.027-2.285.148-3.15.363-3.088.754-8.83 1.906-13.795 1.477-1.236-.105-3.314-.422-4.227-.895-.633-.328-2.727.781-3.135.223-.316.441-.914.695-3.447.996-6.279.75-16.734.641-19.457.738-8.518.312-17.285-1.992-25.775-1.934-.664.008-1.258.406-1.943.484-1.051.125-2.201-.082-3.277 0l-2.672.488c-2.244.168-4.783-.496-7.043-.488l-4.008.488c-1.021-.016-2.217-.133-3.279-.242-1.064-.109-2.045-.824-3.035-.852-.967-.023-1.973.68-2.914.605-.682-.051-1.293-.766-2.309-.848-1.549-.129-3.219.711-4.25.363-.865-.289-1.172-1.906-1.578-3.398-.369-1.352-.756-2.582-1.217-3.648-.984-2.262-1.273-5.512-1.314-8.156-.039-2.434.268-4.562.416-7.094.305-5.215-.227-10.605-.326-15.875-.105-5.52.758-11.207.379-16.695-.273-3.977-.883-7.922-1.115-11.903-.211-3.625.289-7.361-.344-10.947-.188-1.061-.748-2.121-.852-3.158-.072-.738.172-1.611.123-2.428-.082-1.332-.41-2.693-.365-3.887.076-1.973.684-5.322.242-7.771-.207-1.145-1.184-1.758-.971-3.766.105-1 .654-1.912.85-2.914.363-1.857.539-4.975.121-7.285-.154-.865-.957-1.533-.971-2.309-.014-.932.689-1.23.971-1.941.635-1.602.707-7.863 1.822-8.623.561-.381 3.188-.43 4.863-.486 3.037-.102 5.805.125 8.807-.285 1.604-.221 3.064-.746 4.748-.848 1.049-.062 2.027.311 3.084.059.736-.176 1.25-1.025 1.973-1.117 1.568-.201 2.779.848 4.402.85 3.264 0 7.191-.982 10.275-1.354 1.67-.199 3.648-.406 5.334-.332 1.25.055 2.42.734 3.656.77 1.348.039 2.254-.729 3.496-.777 1.082-.041 1.205.617 2.309.85.646.139 1.33-.15 2.062-.121.668.027 1.33.311 2.066.365 2.693.195 5.68-.115 8.258-.244 1.84-.092 3.393.354 4.736-.607 1.111.543 2.445 1.016 4.492.73 1.545-.217 2.953-1.096 4.25-.973.783.074 1.42.814 2.307.973 2.314.406 4.957.371 6.68-.607 2.582.73 5.66.783 8.377.484.541-.059 1.062-.445 1.582-.484.426-.033.826.17 1.213.121 1.393-.18 2.977-.691 4.131-1.215.639-.291.857-.145 1.939 0 .449.061.988-.062 1.338 0 .68.121 1.354.625 2.184.729 1.422.176 3.01-.225 4.377 0 .652.107 1.242.482 1.82.486.707.004 1.285-.486 1.941-.486.945.002 1.781.861 2.672.242.871 1.844 1.73 3.695 3.52 4.615-.215-.111.105 11.977.098 12.838-.027 3.293.812 6.059.984 9.213.43 7.646-.527 15.377.012 23.002.059.783.348 1.492.367 2.186.012.469-.184.889-.121 1.336.078.578.539 1.115.605 1.701.074.658-.156 1.41-.121 2.064.035.66.301 1.316.363 2.064.219 2.48-.305 5.272.121 7.407.148.73.699 1.477.73 2.188.047 1.027-.676 2.031-.605 3.035.051.809.809 1.438.969 2.309.387 2.066-.348 5.547-.121 7.891.215 2.18-.219 4.645 0 6.559.086.738.598 1.52.609 2.184.019 1.477-1.286 3.395-.001 4.977zM134.204 35.278c-.578.131-3.303.789-3.895.92l-.201.043c-1.637.352-3.621.074-5.334.338-2.119.326-4.221.742-6.35.992-3.473.408-6.461 2.59-9.957 2.893-2.646.227-5.314-.025-7.924.6-1.219.293-1.754 1.447-2.812 1.762-1.121-.037-1.215-.57-2.236-.393-.598.104-1.172.732-1.875.852-.604.102-1.201-.205-1.789-.066-.961.225-1.379 1.002-2.441 1.205-.887.174-1.754.99-2.781 1.064-.805.059-1.549.232-2.803.41-.979.139-1.469.719-2.254.955-1.818.553-5.678.541-7.922.73-.656.055-1.453 1.145-2.1 1.143l-2.494.623c-.65.07-17.877 4.748-18.643 4.975l.002 1.453c0 5.488 0 5.488 9.967 9.916l1.578.699-.043 1.105c-.121 3.281.074 7.021.285 10.98.498 9.407 1.012 19.133-2.744 24.629l-.488.715h-.869c-10.521 0-18.689 5.105-21.994 13.656l-.07.156c-2.963 5.781-2.029 7.738-.617 10.699.201.426.41.863.613 1.324 1.619 2.602 3.936 4.438 7.07 5.598h1.949c18.852-2.805 19.922-21.363 21.059-41.012.537-9.33 1.096-18.983 3.641-27.116l.266-.85.859-.236c2.553-.705 5.117-1.441 7.697-2.18 10.258-2.939 20.861-5.98 31.926-7.471l1.029-.139.562.875c1.549 2.406 1.92 12.006 1.129 14.598l-.32 1.047-1.09.102c-1.102.102-2.143.184-3.131.262-7.326.58-9.971.994-10.672 5.193 1.297.09 2.74.039 3.932-.02.664-.033 1.285-.062 1.859-.062 5.535 0 7.137 3.346 7.137 14.922v1.266l-1.225.316c-12.621 3.262-18.377 13.293-17.389 21.078.703 5.504 4.432 8.789 9.975 8.789.166.027.404-.004.609-.012 15.473-2.52 15.141-13.941 14.756-27.164-.051-1.754-.084-3.516-.092-5.277l.068-.156.09-1.086c.062-.328.211-.543.221-.816.018-.633-.338-1.312-.164-2.043.055-.215.225-.344.299-.551.074-.223.078-.617.152-.949.047-.215.141-.363.154-.529.016-.27-.174-.502-.145-.777l.215-.559.012-.506c.041-.315-.029-.745.033-1.114.023-.123-.105-.887-.1-1.062l.104-.273c1.598-2.814 4.229-4.361 6.766-5.857 2.973-1.748 5.41-3.182 6.041-6.285-2.33.236-4.148.75-5.666 1.18-1.859.525-3.443.959-5.076.725l-1.102-.158-.256-1.08c-3.264-13.67 3.789-19.781 10.01-25.174 2.188-1.893 3.857-3.193 5.436-5.238-.34-1.579.469-2.556-.437-4.577z"/></g></svg>